{"title":"Bra Boys 2007 DVDRip-CG","uid":10617372,"size":733599744,"categoryP":"video","categoryS":"movies","magnet":"?xt=urn:btih:edcba0ba2e5d9a84e891738d054cec859c569e2b&amp;dn=Bra+Boys+2007+DVDRip-CG&amp;tr=udp%3A%2F%2Ftracker.openbittorrent.com%3A80&amp;tr=udp%3A%2F%2Fopen.demonii.com%3A1337&amp;tr=udp%3A%2F%2Ftracker.coppersurfer.tk%3A6969&amp;tr=udp%3A%2F%2Fexodus.desync.com%3A6969","seeders":2,"leechers":0,"uploader":"lokioddin","files":1,"time":1406138104,"description":"SilverTorrent - Clean And Verified Torrents Download\n\n\n\nBra Boys 2007 DVDRip-CG avi\n\n\n\n &lt;a href=&quot;\nhttp://www.imdb.com/title/tt0951318/&quot; rel=&quot;nofollow&quot; target=&quot;_NEW&quot;&gt;\nhttp://www.imdb.com/title/tt0951318/&lt;/a&gt;\n\n\nFormat : AVI\nFormat/Info: Audio Video Interleave\nFile size: 700 MiB\nDuration : 1h 23mn\nOverall bit rate mode: Variable\nOverall bit rate : 1 174 Kbps\nWriting application: Nandub v1.0rc2\nWriting library: Nandub build 1852/release\n\nVideo\nID : 0\nFormat : MPEG-4 Visual\nFormat profile : Advanced Simple@L5\nFormat settings, BVOP: 2\nFormat settings, QPel: No\nFormat settings, GMC : No warppoints\nFormat settings, Matrix: Default (H.263)\nCodec ID : XVID\nCodec ID/Hint: XviD\nDuration : 1h 23mn\nBit rate : 1 023 Kbps\nWidth: 624 pixels\nHeight : 336 pixels\nDisplay aspect ratio : 1.85:1\nFrame rate : 25.000 fps\nColor space: YUV\nChroma subsampling : 4:2:0\nBit depth: 8 bits\nScan type: Progressive\nCompression mode : Lossy\nBits/(Pixel*Frame) : 0.195\nStream size: 609 MiB (87%)\nWriting library: XviD 1.2.0SMP (UTC\n2006-01-08)\n\nAudio\nID : 1\nFormat : MPEG Audio\nFormat version : Version 1\nFormat profile : Layer 3\nMode : Joint stereo\nMode extension : MS Stereo\nCodec ID : 55\nCodec ID/Hint: MP3\nDuration : 1h 23mn\nBit rate mode: Variable\nBit rate : 139 Kbps\nChannel count: 2 channels\nSampling rate: 48.0 KHz\nCompression mode : Lossy\nStream size: 82.6 MiB (12%)\n\n\n\n\nSilverTorrent - Clean And Verified Torrents Download\n\n\n","torrent":{"xt":"urn:btih:edcba0ba2e5d9a84e891738d054cec859c569e2b","amp;dn":"Bra+Boys+2007+DVDRip-CG","amp;tr":["udp%3A%2F%2Ftracker.openbittorrent.com%3A80","udp%3A%2F%2Fopen.demonii.com%3A1337","udp%3A%2F%2Ftracker.coppersurfer.tk%3A6969","udp%3A%2F%2Fexodus.desync.com%3A6969"],"infoHash":"edcba0ba2e5d9a84e891738d054cec859c569e2b","infoHashBuffer":{"type":"Buffer","data":[237,203,160,186,46,93,154,132,232,145,115,141,5,76,236,133,156,86,158,43]},"announce":[],"urlList":[]}}